<svg xmlns="http://www.w3.org/2000/svg" xmlns:xlink="http://www.w3.org/1999/xlink" version="1.1" width="943.2622319679572" height="1144.1918900560909"><desc>title%20KAMIKAZE%0A%0Aparticipant%20RASPBERRY%20P%C4%B0%0Aparticipant%20PX4%0Aparticipant%20YKI%0A%0AYKI%3C-TEKNOFEST%3AQR_KONUMU(HTTP)%0APX4%3C-YKI%3AQR_LOCATION_PACKET%0Arbox%20over%20PX4%3AQR'a%20yakla%C5%9Fma%0A%0Aspace%0ARASPBERRY%20P%C4%B0%3C-PX4%3ARPI_CONTROL_PACKET%0Arbox%20over%20PX4%3AQR'a%20dal%C4%B1%C5%9F%0Arbox%20over%20PX4%3AQR%20kurtarma%0ARASPBERRY%20P%C4%B0%3C-PX4%3ARPI_CONTROL_PACKET%0ARASPBERRY%20P%C4%B0-%3EPX4%3AKAMIKAZE_STATUS_PACKET%0APX4-%3EYKI%3AKAMIKAZE_STATUS_PACKET%0AYKI-%3E%3ETEKNOFEST%3AKAMIKAZE</desc><defs/><g><g/><g/><g/><g/><g/><g/><g/><g/><g/><g/><g/><g/><g/><g/><g/><g/><g/><g/><g/><g/><g/><g/><g/><g/><g/><g/><g/><g/><g><rect fill="white" stroke="none" x="0" y="0" width="943" height="1144"/></g><g/><g><path fill="none" stroke="black" paint-order="fill stroke markers" d=" M 95.85498183178126 154.65553630609094 L 95.85498183178126 1144.1918900560909" stroke-miterlimit="10" stroke-width="2.1989696750000003" stroke-dasharray="20.298181615384618,8.795878700000001"/><path fill="none" stroke="black" paint-order="fill stroke markers" d=" M 369.8271292296329 154.65553630609094 L 369.8271292296329 1144.1918900560909" stroke-miterlimit="10" stroke-width="2.1989696750000003" stroke-dasharray="20.298181615384618,8.795878700000001"/><path fill="none" stroke="black" paint-order="fill stroke markers" d=" M 643.7992766274845 154.65553630609094 L 643.7992766274845 1144.1918900560909" stroke-miterlimit="10" stroke-width="2.1989696750000003" stroke-dasharray="20.298181615384618,8.795878700000001"/><path fill="none" stroke="black" paint-order="fill stroke markers" d=" M 857.465500563422 154.65553630609094 L 857.465500563422 1144.1918900560909" stroke-miterlimit="10" stroke-width="2.1989696750000003" stroke-dasharray="20.298181615384618,8.795878700000001"/></g><g><path fill="none" stroke="none"/><g><path fill="white" stroke="black" paint-order="fill stroke markers" d=" M 13.193818050000004 83.40891883609093 L 178.51614561356251 83.40891883609093 L 178.51614561356251 154.65553630609094 L 13.193818050000004 154.65553630609094 L 13.193818050000004 83.40891883609093 Z" stroke-miterlimit="10" stroke-width="4.222021776" stroke-dasharray=""/></g><g><g/><text fill="black" stroke="none" font-family="sans-serif" font-size="11pt" font-style="normal" font-weight="normal" text-decoration="normal" x="41.82440321850001" y="128.2679002060909" text-anchor="start" dominant-baseline="alphabetic" xml:space="preserve">RASPBERRY Pİ</text></g><path fill="none" stroke="none"/><g><path fill="white" stroke="black" paint-order="fill stroke markers" d=" M 327.345385919043 83.40891883609093 L 412.3088725402227 83.40891883609093 L 412.3088725402227 154.65553630609094 L 327.345385919043 154.65553630609094 L 327.345385919043 83.40891883609093 Z" stroke-miterlimit="10" stroke-width="4.222021776" stroke-dasharray=""/></g><g><g/><text fill="black" stroke="none" font-family="sans-serif" font-size="11pt" font-style="normal" font-weight="normal" text-decoration="normal" x="355.97597108754303" y="128.2679002060909" text-anchor="start" dominant-baseline="alphabetic" xml:space="preserve">PX4</text></g><path fill="none" stroke="none"/><g><path fill="white" stroke="black" paint-order="fill stroke markers" d=" M 603.3570993569336 83.40891883609093 L 684.2414538980352 83.40891883609093 L 684.2414538980352 154.65553630609094 L 603.3570993569336 154.65553630609094 L 603.3570993569336 83.40891883609093 Z" stroke-miterlimit="10" stroke-width="4.222021776" stroke-dasharray=""/></g><g><g/><text fill="black" stroke="none" font-family="sans-serif" font-size="11pt" font-style="normal" font-weight="normal" text-decoration="normal" x="631.9876845254337" y="128.2679002060909" text-anchor="start" dominant-baseline="alphabetic" xml:space="preserve">YKI</text></g><path fill="none" stroke="none"/><g><path fill="white" stroke="black" paint-order="fill stroke markers" d=" M 784.8625872088868 83.40891883609093 L 930.0684139179571 83.40891883609093 L 930.0684139179571 154.65553630609094 L 784.8625872088868 154.65553630609094 L 784.8625872088868 83.40891883609093 Z" stroke-miterlimit="10" stroke-width="4.222021776" stroke-dasharray=""/></g><g><g/><text fill="black" stroke="none" font-family="sans-serif" font-size="11pt" font-style="normal" font-weight="normal" text-decoration="normal" x="813.4931723773868" y="128.2679002060909" text-anchor="start" dominant-baseline="alphabetic" xml:space="preserve">TEKNOFEST</text></g></g><g><g><text fill="black" stroke="none" font-family="sans-serif" font-size="16pt" font-style="normal" font-weight="normal" text-decoration="normal" x="417.5756607055664" y="39.82134175090909" text-anchor="start" dominant-baseline="alphabetic" xml:space="preserve">KAMIKAZE</text></g><g><rect fill="white" stroke="none" x="675.0246460124845" y="207.43080850609095" width="151.2154851659375" height="34.30392693"/><text fill="black" stroke="none" font-family="sans-serif" font-size="11pt" font-style="normal" font-weight="normal" text-decoration="normal" x="678.9827914274845" y="231.17968099609095" text-anchor="start" dominant-baseline="alphabetic" xml:space="preserve">QR_KONUMU(HTTP)</text></g><g><path fill="none" stroke="black" paint-order="fill stroke markers" d=" M 857.465500563422 241.73473543609094 L 665.5250970164844 241.73473543609094" stroke-miterlimit="10" stroke-width="2.1989696750000003"/><g transform="translate(643.7992766274845,241.73473543609094) translate(-643.7992766274845,-241.73473543609094)"><path fill="black" stroke="none" paint-order="stroke fill markers" d=" M 665.7889733774845 230.73988706109094 L 643.7992766274845 241.73473543609094 L 665.7889733774845 252.72958381109095 Z"/></g></g><g><rect fill="white" stroke="none" x="418.02011946424227" y="281.31618958609096" width="177.58616692863282" height="34.30392693"/><text fill="black" stroke="none" font-family="sans-serif" font-size="11pt" font-style="normal" font-weight="normal" text-decoration="normal" x="421.97826487924226" y="305.06506207609095" text-anchor="start" dominant-baseline="alphabetic" xml:space="preserve">QR_LOCATION_PACKET</text></g><g><path fill="none" stroke="black" paint-order="fill stroke markers" d=" M 643.7992766274845 315.62011651609095 L 391.55294961863285 315.62011651609095" stroke-miterlimit="10" stroke-width="2.1989696750000003"/><g transform="translate(369.8271292296329,315.62011651609095) translate(-369.8271292296329,-315.62011651609095)"><path fill="black" stroke="none" paint-order="stroke fill markers" d=" M 391.8168259796329 304.62526814109094 L 369.8271292296329 315.62011651609095 L 391.8168259796329 326.61496489109095 Z"/></g></g><path fill="white" stroke="black" paint-order="fill stroke markers" d=" M 283.43032949773834 378.95044315609096 L 283.43032949773834 378.95044315609096 A 23.748872490000004 23.748872490000004 0 0 1 307.17920198773834 355.20157066609096 L 432.4750564715274 355.20157066609096 L 432.4750564715274 355.20157066609096 A 23.748872490000004 23.748872490000004 0 0 1 456.2239289615274 378.95044315609096 L 456.2239289615274 392.14426120609096 L 456.2239289615274 392.14426120609096 A 23.748872490000004 23.748872490000004 0 0 1 432.4750564715274 415.89313369609096 L 307.17920198773834 415.89313369609096 L 307.17920198773834 415.89313369609096 A 23.748872490000004 23.748872490000004 0 0 1 283.43032949773834 392.14426120609096 Z" stroke-miterlimit="10" stroke-width="2.1989696750000003" stroke-dasharray=""/><g><text fill="black" stroke="none" font-family="sans-serif" font-size="11pt" font-style="normal" font-weight="normal" text-decoration="normal" x="320.37302003773834" y="392.14426120609096" text-anchor="start" dominant-baseline="alphabetic" xml:space="preserve">QR'a yaklaşma</text></g><g><rect fill="white" stroke="none" x="143.91186366795316" y="521.4436780960909" width="177.85838372550782" height="34.30392693"/><text fill="black" stroke="none" font-family="sans-serif" font-size="11pt" font-style="normal" font-weight="normal" text-decoration="normal" x="147.87000908295315" y="545.192550586091" text-anchor="start" dominant-baseline="alphabetic" xml:space="preserve">RPI_CONTROL_PACKET</text></g><g><path fill="none" stroke="black" paint-order="fill stroke markers" d=" M 369.8271292296329 555.7476050260909 L 117.58080222078127 555.7476050260909" stroke-miterlimit="10" stroke-width="2.1989696750000003"/><g transform="translate(95.85498183178126,555.7476050260909) translate(-95.85498183178126,-555.7476050260909)"><path fill="black" stroke="none" paint-order="stroke fill markers" d=" M 117.84467858178127 544.752756651091 L 95.85498183178126 555.7476050260909 L 117.84467858178127 566.7424534010909 Z"/></g></g><path fill="white" stroke="black" paint-order="fill stroke markers" d=" M 298.90240591375397 619.077931666091 L 298.90240591375397 619.077931666091 A 23.748872490000004 23.748872490000004 0 0 1 322.65127840375396 595.3290591760909 L 417.0029800555118 595.3290591760909 L 417.0029800555118 595.3290591760909 A 23.748872490000004 23.748872490000004 0 0 1 440.7518525455118 619.077931666091 L 440.7518525455118 632.2717497160909 L 440.7518525455118 632.2717497160909 A 23.748872490000004 23.748872490000004 0 0 1 417.0029800555118 656.0206222060909 L 322.65127840375396 656.0206222060909 L 322.65127840375396 656.0206222060909 A 23.748872490000004 23.748872490000004 0 0 1 298.90240591375397 632.2717497160909 Z" stroke-miterlimit="10" stroke-width="2.1989696750000003"/><g><text fill="black" stroke="none" font-family="sans-serif" font-size="11pt" font-style="normal" font-weight="normal" text-decoration="normal" x="335.84509645375397" y="632.271749716091" text-anchor="start" dominant-baseline="alphabetic" xml:space="preserve">QR'a dalış</text></g><path fill="white" stroke="black" paint-order="fill stroke markers" d=" M 290.94452017156647 719.350948846091 L 290.94452017156647 719.350948846091 A 23.748872490000004 23.748872490000004 0 0 1 314.69339266156646 695.602076356091 L 424.9608657976993 695.602076356091 L 424.9608657976993 695.602076356091 A 23.748872490000004 23.748872490000004 0 0 1 448.7097382876993 719.350948846091 L 448.7097382876993 732.5447668960909 L 448.7097382876993 732.5447668960909 A 23.748872490000004 23.748872490000004 0 0 1 424.9608657976993 756.293639386091 L 314.69339266156646 756.293639386091 L 314.69339266156646 756.293639386091 A 23.748872490000004 23.748872490000004 0 0 1 290.94452017156647 732.5447668960909 Z" stroke-miterlimit="10" stroke-width="2.1989696750000003"/><g><text fill="black" stroke="none" font-family="sans-serif" font-size="11pt" font-style="normal" font-weight="normal" text-decoration="normal" x="327.88721071156647" y="732.544766896091" text-anchor="start" dominant-baseline="alphabetic" xml:space="preserve">QR kurtarma</text></g><g><rect fill="white" stroke="none" x="143.91186366795316" y="795.875093536091" width="177.85838372550782" height="34.30392693"/><text fill="black" stroke="none" font-family="sans-serif" font-size="11pt" font-style="normal" font-weight="normal" text-decoration="normal" x="147.87000908295315" y="819.623966026091" text-anchor="start" dominant-baseline="alphabetic" xml:space="preserve">RPI_CONTROL_PACKET</text></g><g><path fill="none" stroke="black" paint-order="fill stroke markers" d=" M 369.8271292296329 830.179020466091 L 117.58080222078127 830.179020466091" stroke-miterlimit="10" stroke-width="2.1989696750000003"/><g transform="translate(95.85498183178126,830.179020466091) translate(-95.85498183178126,-830.179020466091)"><path fill="black" stroke="none" paint-order="stroke fill markers" d=" M 117.84467858178127 819.184172091091 L 95.85498183178126 830.179020466091 L 117.84467858178127 841.1738688410909 Z"/></g></g><g><rect fill="white" stroke="none" x="127.08035121678127" y="869.760474616091" width="211.52140862785157" height="34.30392693"/><text fill="black" stroke="none" font-family="sans-serif" font-size="11pt" font-style="normal" font-weight="normal" text-decoration="normal" x="131.03849663178127" y="893.509347106091" text-anchor="start" dominant-baseline="alphabetic" xml:space="preserve">KAMIKAZE_STATUS_PACKET</text></g><g><path fill="none" stroke="black" paint-order="fill stroke markers" d=" M 95.85498183178126 904.064401546091 L 348.1013088406329 904.064401546091" stroke-miterlimit="10" stroke-width="2.1989696750000003"/><g transform="translate(369.8271292296329,904.064401546091) translate(-369.8271292296329,-904.064401546091)"><path fill="black" stroke="none" paint-order="stroke fill markers" d=" M 347.83743247963287 893.069553171091 L 369.8271292296329 904.064401546091 L 347.83743247963287 915.0592499210909 Z"/></g></g><g><rect fill="white" stroke="none" x="401.0524986146329" y="943.645855696091" width="211.52140862785157" height="34.30392693"/><text fill="black" stroke="none" font-family="sans-serif" font-size="11pt" font-style="normal" font-weight="normal" text-decoration="normal" x="405.0106440296329" y="967.394728186091" text-anchor="start" dominant-baseline="alphabetic" xml:space="preserve">KAMIKAZE_STATUS_PACKET</text></g><g><path fill="none" stroke="black" paint-order="fill stroke markers" d=" M 369.8271292296329 977.949782626091 L 622.0734562384845 977.949782626091" stroke-miterlimit="10" stroke-width="2.1989696750000003"/><g transform="translate(643.7992766274845,977.949782626091) translate(-643.7992766274845,-977.949782626091)"><path fill="black" stroke="none" paint-order="stroke fill markers" d=" M 621.8095798774845 966.954934251091 L 643.7992766274845 977.949782626091 L 621.8095798774845 988.9446310010909 Z"/></g></g><g><rect fill="white" stroke="none" x="709.6185486003751" y="1017.5312367760909" width="82.02767999015624" height="34.30392693"/><text fill="black" stroke="none" font-family="sans-serif" font-size="11pt" font-style="normal" font-weight="normal" text-decoration="normal" x="713.5766940153751" y="1041.280109266091" text-anchor="start" dominant-baseline="alphabetic" xml:space="preserve">KAMIKAZE</text></g><g><path fill="none" stroke="black" paint-order="fill stroke markers" d=" M 643.7992766274845 1051.835163706091 L 854.167046050922 1051.835163706091" stroke-miterlimit="10" stroke-width="2.1989696750000003"/><g transform="translate(857.465500563422,1051.835163706091) translate(-857.465500563422,-1051.835163706091)"><path fill="none" stroke="black" paint-order="fill stroke markers" d=" M 834.8577980984885 1041.7496754600838 L 854.9934777036882 1051.835163706091 L 834.8577980984885 1061.920651952098" stroke-miterlimit="10" stroke-width="2.1989696750000003"/></g></g></g><g/><g/><g/><g/></g></svg>