<svg xmlns="http://www.w3.org/2000/svg" xmlns:xlink="http://www.w3.org/1999/xlink" version="1.1" width="979.8142360210977" height="1313.312648697"><desc>itle%20KILITLENME%0A%0Aparticipant%20RASPBERRY%20P%C4%B0%0Aparticipant%20PX4%0Aparticipant%20YKI%0A%0APX4-%3EYKI%3ATELEMETRI%0AYKI-%3ETEKNOFEST%3ATELEMETRI(HTTP)%0AYKI%3C-TEKNOFEST%3ARAK%C4%B0P%20TELEMETR%C4%B0LER%C4%B0(HTTP)%5Cn%0Arbox%20over%20YKI%3ARAKIP%20SE%C3%87%C4%B0M%0APX4%3C-YKI%3AENEMY_GPS_PACKET%0Arbox%20over%20PX4%3ARAKIP%20YAKLA%C5%9EIM%0Arbox%20over%20RASPBERRY%20P%C4%B0%3ARAKIP%20TESPIT%0APX4%3C-RASPBERRY%20P%C4%B0%3AENEMY_PIXEL%20PACKET%0Arbox%20over%20PX4%3ARAKIP%20TAKIP%0APX4-%3EYKI%3AENEMY_DETECTION_STATUS%0Arbox%20over%20PX4%3AKILITLENME%20%3D%3E%204sn%0APX4-%3EYKI%3AENEMY_DETECTED_CLOCK%0AYKI-%3E%3ETEKNOFEST%3AKILITLENME%0A</desc><defs/><g><g/><g/><g/><g/><g/><g/><g/><g/><g/><g/><g/><g/><g/><g/><g/><g/><g/><g/><g/><g/><g/><g/><g/><g/><g/><g/><g/><g/><g/><g/><g/><g/><g/><g/><g/><g/><g/><g/><g/><g/><g/><g/><g><rect fill="white" stroke="none" x="0" y="0" width="979" height="1313"/></g><g/><g><path fill="none" stroke="black" paint-order="fill stroke markers" d=" M 99.81604350210938 88.92633365700001 L 99.81604350210938 1313.312648697" stroke-miterlimit="10" stroke-width="2.1989696750000003" stroke-dasharray="20.298181615384618,8.795878700000001"/><path fill="none" stroke="black" paint-order="fill stroke markers" d=" M 333.62718015777347 88.92633365700001 L 333.62718015777347 1313.312648697" stroke-miterlimit="10" stroke-width="2.1989696750000003" stroke-dasharray="20.298181615384618,8.795878700000001"/><path fill="none" stroke="black" paint-order="fill stroke markers" d=" M 612.7378773603125 88.92633365700001 L 612.7378773603125 1313.312648697" stroke-miterlimit="10" stroke-width="2.1989696750000003" stroke-dasharray="20.298181615384618,8.795878700000001"/><path fill="none" stroke="black" paint-order="fill stroke markers" d=" M 894.0175046165625 88.92633365700001 L 894.0175046165625 1313.312648697" stroke-miterlimit="10" stroke-width="2.1989696750000003" stroke-dasharray="20.298181615384618,8.795878700000001"/></g><g><path fill="none" stroke="none"/><g><path fill="white" stroke="black" paint-order="fill stroke markers" d=" M 17.154879720328125 17.679716187000004 L 182.47720728389064 17.679716187000004 L 182.47720728389064 88.92633365700001 L 17.154879720328125 88.92633365700001 L 17.154879720328125 17.679716187000004 Z" stroke-miterlimit="10" stroke-width="4.222021776" stroke-dasharray=""/></g><g><g/><text fill="black" stroke="none" font-family="sans-serif" font-size="11pt" font-style="normal" font-weight="normal" text-decoration="normal" x="45.78546488882813" y="62.53869755700001" text-anchor="start" dominant-baseline="alphabetic" xml:space="preserve">RASPBERRY Pİ</text></g><path fill="none" stroke="none"/><g><path fill="white" stroke="black" paint-order="fill stroke markers" d=" M 291.14543684718365 17.679716187000004 L 376.10892346836334 17.679716187000004 L 376.10892346836334 88.92633365700001 L 291.14543684718365 88.92633365700001 L 291.14543684718365 17.679716187000004 Z" stroke-miterlimit="10" stroke-width="4.222021776" stroke-dasharray=""/></g><g><g/><text fill="black" stroke="none" font-family="sans-serif" font-size="11pt" font-style="normal" font-weight="normal" text-decoration="normal" x="319.7760220156836" y="62.53869755700001" text-anchor="start" dominant-baseline="alphabetic" xml:space="preserve">PX4</text></g><path fill="none" stroke="none"/><g><path fill="white" stroke="black" paint-order="fill stroke markers" d=" M 572.2957000897617 17.679716187000004 L 653.1800546308632 17.679716187000004 L 653.1800546308632 88.92633365700001 L 572.2957000897617 88.92633365700001 L 572.2957000897617 17.679716187000004 Z" stroke-miterlimit="10" stroke-width="4.222021776" stroke-dasharray=""/></g><g><g/><text fill="black" stroke="none" font-family="sans-serif" font-size="11pt" font-style="normal" font-weight="normal" text-decoration="normal" x="600.9262852582617" y="62.53869755700001" text-anchor="start" dominant-baseline="alphabetic" xml:space="preserve">YKI</text></g><path fill="none" stroke="none"/><g><path fill="white" stroke="black" paint-order="fill stroke markers" d=" M 821.4145912620273 17.679716187000004 L 966.6204179710976 17.679716187000004 L 966.6204179710976 88.92633365700001 L 821.4145912620273 88.92633365700001 L 821.4145912620273 17.679716187000004 Z" stroke-miterlimit="10" stroke-width="4.222021776" stroke-dasharray=""/></g><g><g/><text fill="black" stroke="none" font-family="sans-serif" font-size="11pt" font-style="normal" font-weight="normal" text-decoration="normal" x="850.0451764305274" y="62.53869755700001" text-anchor="start" dominant-baseline="alphabetic" xml:space="preserve">TEKNOFEST</text></g></g><g><g><rect fill="white" stroke="none" x="428.1002912419922" y="141.701605857" width="90.16447503410156" height="34.30392693"/><text fill="black" stroke="none" font-family="sans-serif" font-size="11pt" font-style="normal" font-weight="normal" text-decoration="normal" x="432.05843665699217" y="165.450478347" text-anchor="start" dominant-baseline="alphabetic" xml:space="preserve">TELEMETRI</text></g><g><path fill="none" stroke="black" paint-order="fill stroke markers" d=" M 333.62718015777347 176.00553278700002 L 591.0120569713125 176.00553278700002" stroke-miterlimit="10" stroke-width="2.1989696750000003"/><g transform="translate(612.7378773603125,176.00553278700002) translate(-612.7378773603125,-176.00553278700002)"><path fill="black" stroke="none" paint-order="stroke fill markers" d=" M 590.7481806103125 165.01068441200002 L 612.7378773603125 176.00553278700002 L 590.7481806103125 187.00038116200002 Z"/></g></g><g><rect fill="white" stroke="none" x="684.2822469894531" y="215.586986937" width="138.19088799796876" height="34.30392693"/><text fill="black" stroke="none" font-family="sans-serif" font-size="11pt" font-style="normal" font-weight="normal" text-decoration="normal" x="688.2403924044531" y="239.335859427" text-anchor="start" dominant-baseline="alphabetic" xml:space="preserve">TELEMETRI(HTTP)</text></g><g><path fill="none" stroke="black" paint-order="fill stroke markers" d=" M 612.7378773603125 249.89091386700002 L 872.2916842275625 249.89091386700002" stroke-miterlimit="10" stroke-width="2.1989696750000003"/><g transform="translate(894.0175046165625,249.89091386700002) translate(-894.0175046165625,-249.89091386700002)"><path fill="black" stroke="none" paint-order="stroke fill markers" d=" M 872.0278078665625 238.89606549200002 L 894.0175046165625 249.89091386700002 L 872.0278078665625 260.885762242 Z"/></g></g><g><rect fill="white" stroke="none" x="643.9632467453125" y="289.472368017" width="218.82888848625" height="34.30392693"/><text fill="black" stroke="none" font-family="sans-serif" font-size="11pt" font-style="normal" font-weight="normal" text-decoration="normal" x="647.9213921603125" y="313.221240507" text-anchor="start" dominant-baseline="alphabetic" xml:space="preserve">RAKİP TELEMETRİLERİ(HTTP)</text></g><g><path fill="none" stroke="black" paint-order="fill stroke markers" d=" M 894.0175046165625 350.163931047 L 634.4636977493125 350.163931047" stroke-miterlimit="10" stroke-width="2.1989696750000003"/><g transform="translate(612.7378773603125,350.163931047) translate(-612.7378773603125,-350.163931047)"><path fill="black" stroke="none" paint-order="stroke fill markers" d=" M 634.7275741103125 339.169082672 L 612.7378773603125 350.163931047 L 634.7275741103125 361.158779422 Z"/></g></g><path fill="white" stroke="black" paint-order="fill stroke markers" d=" M 528.5595529702149 413.494257687 L 528.5595529702149 413.494257687 A 23.748872490000004 23.748872490000004 0 0 1 552.308425460215 389.745385197 L 673.1673292604102 389.745385197 L 673.1673292604102 389.745385197 A 23.748872490000004 23.748872490000004 0 0 1 696.9162017504102 413.494257687 L 696.9162017504102 426.688075737 L 696.9162017504102 426.688075737 A 23.748872490000004 23.748872490000004 0 0 1 673.1673292604102 450.436948227 L 552.308425460215 450.436948227 L 552.308425460215 450.436948227 A 23.748872490000004 23.748872490000004 0 0 1 528.5595529702149 426.688075737 Z" stroke-miterlimit="10" stroke-width="2.1989696750000003" stroke-dasharray=""/><g><text fill="black" stroke="none" font-family="sans-serif" font-size="11pt" font-style="normal" font-weight="normal" text-decoration="normal" x="565.5022435102148" y="426.688075737" text-anchor="start" dominant-baseline="alphabetic" xml:space="preserve">RAKIP SEÇİM</text></g><g><rect fill="white" stroke="none" x="390.7620572942383" y="490.018402377" width="164.84094292960938" height="34.30392693"/><text fill="black" stroke="none" font-family="sans-serif" font-size="11pt" font-style="normal" font-weight="normal" text-decoration="normal" x="394.72020270923827" y="513.767274867" text-anchor="start" dominant-baseline="alphabetic" xml:space="preserve">ENEMY_GPS_PACKET</text></g><g><path fill="none" stroke="black" paint-order="fill stroke markers" d=" M 612.7378773603125 524.322329307 L 355.35300054677344 524.322329307" stroke-miterlimit="10" stroke-width="2.1989696750000003"/><g transform="translate(333.62718015777347,524.322329307) translate(-333.62718015777347,-524.322329307)"><path fill="black" stroke="none" paint-order="stroke fill markers" d=" M 355.6168769077735 513.3274809320001 L 333.62718015777347 524.322329307 L 355.6168769077735 535.317177682 Z"/></g></g><path fill="white" stroke="black" paint-order="fill stroke markers" d=" M 236.54605425400393 587.6526559470001 L 236.54605425400393 587.6526559470001 A 23.748872490000004 23.748872490000004 0 0 1 260.29492674400393 563.903783457 L 406.959433571543 563.903783457 L 406.959433571543 563.903783457 A 23.748872490000004 23.748872490000004 0 0 1 430.708306061543 587.6526559470001 L 430.708306061543 600.846473997 L 430.708306061543 600.846473997 A 23.748872490000004 23.748872490000004 0 0 1 406.959433571543 624.595346487 L 260.29492674400393 624.595346487 L 260.29492674400393 624.595346487 A 23.748872490000004 23.748872490000004 0 0 1 236.54605425400393 600.846473997 Z" stroke-miterlimit="10" stroke-width="2.1989696750000003"/><g><text fill="black" stroke="none" font-family="sans-serif" font-size="11pt" font-style="normal" font-weight="normal" text-decoration="normal" x="273.48874479400394" y="600.8464739970001" text-anchor="start" dominant-baseline="alphabetic" xml:space="preserve">RAKIP YAKLAŞIM</text></g><path fill="white" stroke="black" paint-order="fill stroke markers" d=" M 13.19381805 687.9256731270001 L 13.193818049999997 687.9256731270001 A 23.748872490000004 23.748872490000004 0 0 1 36.94269054 664.176800637 L 162.68939646421876 664.176800637 L 162.68939646421876 664.176800637 A 23.748872490000004 23.748872490000004 0 0 1 186.43826895421876 687.9256731270001 L 186.43826895421876 701.119491177 L 186.43826895421876 701.119491177 A 23.748872490000004 23.748872490000004 0 0 1 162.68939646421876 724.868363667 L 36.94269054 724.868363667 L 36.94269054 724.868363667 A 23.748872490000004 23.748872490000004 0 0 1 13.193818049999997 701.119491177 Z" stroke-miterlimit="10" stroke-width="2.1989696750000003"/><g><text fill="black" stroke="none" font-family="sans-serif" font-size="11pt" font-style="normal" font-weight="normal" text-decoration="normal" x="50.136508590000005" y="701.1194911770001" text-anchor="start" dominant-baseline="alphabetic" xml:space="preserve">RAKIP TESPIT</text></g><g><rect fill="white" stroke="none" x="131.0414128871094" y="764.449817817" width="171.36039788566407" height="34.30392693"/><text fill="black" stroke="none" font-family="sans-serif" font-size="11pt" font-style="normal" font-weight="normal" text-decoration="normal" x="134.9995583021094" y="788.1986903070001" text-anchor="start" dominant-baseline="alphabetic" xml:space="preserve">ENEMY_PIXEL PACKET</text></g><g><path fill="none" stroke="black" paint-order="fill stroke markers" d=" M 99.81604350210938 798.753744747 L 311.9013597687735 798.753744747" stroke-miterlimit="10" stroke-width="2.1989696750000003"/><g transform="translate(333.62718015777347,798.753744747) translate(-333.62718015777347,-798.753744747)"><path fill="black" stroke="none" paint-order="stroke fill markers" d=" M 311.63748340777346 787.7588963720001 L 333.62718015777347 798.753744747 L 311.63748340777346 809.748593122 Z"/></g></g><path fill="white" stroke="black" paint-order="fill stroke markers" d=" M 252.02528704208987 862.0840713870001 L 252.02528704208987 862.0840713870001 A 23.748872490000004 23.748872490000004 0 0 1 275.77415953208987 838.335198897 L 391.48020078345706 838.335198897 L 391.48020078345706 838.335198897 A 23.748872490000004 23.748872490000004 0 0 1 415.22907327345706 862.0840713870001 L 415.22907327345706 875.277889437 L 415.22907327345706 875.277889437 A 23.748872490000004 23.748872490000004 0 0 1 391.48020078345706 899.026761927 L 275.77415953208987 899.026761927 L 275.77415953208987 899.026761927 A 23.748872490000004 23.748872490000004 0 0 1 252.02528704208987 875.277889437 Z" stroke-miterlimit="10" stroke-width="2.1989696750000003"/><g><text fill="black" stroke="none" font-family="sans-serif" font-size="11pt" font-style="normal" font-weight="normal" text-decoration="normal" x="288.9679775820899" y="875.2778894370001" text-anchor="start" dominant-baseline="alphabetic" xml:space="preserve">RAKIP TAKIP</text></g><g><rect fill="white" stroke="none" x="364.85254954277343" y="938.6082160770001" width="216.65995843253907" height="34.30392693"/><text fill="black" stroke="none" font-family="sans-serif" font-size="11pt" font-style="normal" font-weight="normal" text-decoration="normal" x="368.8106949577734" y="962.3570885670001" text-anchor="start" dominant-baseline="alphabetic" xml:space="preserve">ENEMY_DETECTION_STATUS</text></g><g><path fill="none" stroke="black" paint-order="fill stroke markers" d=" M 333.62718015777347 972.912143007 L 591.0120569713125 972.912143007" stroke-miterlimit="10" stroke-width="2.1989696750000003"/><g transform="translate(612.7378773603125,972.912143007) translate(-612.7378773603125,-972.912143007)"><path fill="black" stroke="none" paint-order="stroke fill markers" d=" M 590.7481806103125 961.9172946320001 L 612.7378773603125 972.912143007 L 590.7481806103125 983.906991382 Z"/></g></g><path fill="white" stroke="black" paint-order="fill stroke markers" d=" M 229.47899950546878 1036.242469647 L 229.47899950546878 1036.242469647 A 23.748872490000004 23.748872490000004 0 0 1 253.22787199546877 1012.493597157 L 414.02648832007816 1012.4935971570001 L 414.02648832007816 1012.493597157 A 23.748872490000004 23.748872490000004 0 0 1 437.77536081007815 1036.242469647 L 437.77536081007815 1049.4362876970001 L 437.77536081007815 1049.4362876970001 A 23.748872490000004 23.748872490000004 0 0 1 414.02648832007816 1073.185160187 L 253.22787199546877 1073.185160187 L 253.22787199546877 1073.185160187 A 23.748872490000004 23.748872490000004 0 0 1 229.47899950546878 1049.4362876970001 Z" stroke-miterlimit="10" stroke-width="2.1989696750000003"/><g><text fill="black" stroke="none" font-family="sans-serif" font-size="11pt" font-style="normal" font-weight="normal" text-decoration="normal" x="266.4216900454688" y="1049.436287697" text-anchor="start" dominant-baseline="alphabetic" xml:space="preserve">KILITLENME =&gt; 4sn</text></g><g><rect fill="white" stroke="none" x="370.273226727832" y="1112.766614337" width="205.81860406242188" height="34.30392693"/><text fill="black" stroke="none" font-family="sans-serif" font-size="11pt" font-style="normal" font-weight="normal" text-decoration="normal" x="374.231372142832" y="1136.515486827" text-anchor="start" dominant-baseline="alphabetic" xml:space="preserve">ENEMY_DETECTED_CLOCK</text></g><g><path fill="none" stroke="black" paint-order="fill stroke markers" d=" M 333.62718015777347 1147.070541267 L 591.0120569713125 1147.070541267" stroke-miterlimit="10" stroke-width="2.1989696750000003"/><g transform="translate(612.7378773603125,1147.070541267) translate(-612.7378773603125,-1147.070541267)"><path fill="black" stroke="none" paint-order="stroke fill markers" d=" M 590.7481806103125 1136.075692892 L 612.7378773603125 1147.070541267 L 590.7481806103125 1158.065389642 Z"/></g></g><g><rect fill="white" stroke="none" x="706.6602224533203" y="1186.651995417" width="93.43493707023437" height="34.30392693"/><text fill="black" stroke="none" font-family="sans-serif" font-size="11pt" font-style="normal" font-weight="normal" text-decoration="normal" x="710.6183678683203" y="1210.400867907" text-anchor="start" dominant-baseline="alphabetic" xml:space="preserve">KILITLENME</text></g><g><path fill="none" stroke="black" paint-order="fill stroke markers" d=" M 612.7378773603125 1220.955922347 L 890.7190501040625 1220.955922347" stroke-miterlimit="10" stroke-width="2.1989696750000003"/><g transform="translate(894.0175046165625,1220.955922347) translate(-894.0175046165625,-1220.955922347)"><path fill="none" stroke="black" paint-order="fill stroke markers" d=" M 871.409802151629 1210.870434100993 L 891.5454817568287 1220.955922347 L 871.409802151629 1231.0414105930072" stroke-miterlimit="10" stroke-width="2.1989696750000003"/></g></g></g><g/><g/><g/><g/></g></svg>